<svg xmlns="http://www.w3.org/2000/svg" viewBox="0 0 856 215.96"><defs><style>.cls-1{fill:#f30b40;fill-rule:evenodd;}</style></defs><title>资源 4</title><g id="图层_2" data-name="图层 2"><g id="图层_1-2" data-name="图层 1"><path d="M523.21,74.69l-10.8,4.52a1.41,1.41,0,0,1-2-1.31V62.39A1.42,1.42,0,0,1,511.86,61h14.87a2.84,2.84,0,0,0,2.84-2.83V43.42a2.83,2.83,0,0,0-2.84-2.83H511.86a1.42,1.42,0,0,1-1.41-1.42V21.47a2.84,2.84,0,0,0-2.84-2.83h-14.5a2.83,2.83,0,0,0-2.83,2.83v17.7a1.43,1.43,0,0,1-1.42,1.42H469.64a2.83,2.83,0,0,0-2.83,2.83V58.14A2.83,2.83,0,0,0,469.64,61h19.22a1.43,1.43,0,0,1,1.42,1.42v24.9a1.43,1.43,0,0,1-.88,1.31L467,97.78a2.84,2.84,0,0,0-1.55,3.7l5.51,13.4a2.82,2.82,0,0,0,3.69,1.54l13.81-5.64a1.41,1.41,0,0,1,1.95,1.33l-.07,5.71a6.08,6.08,0,0,1-6.07,6H471.38a2.83,2.83,0,0,0-2.83,2.83v14.5a2.83,2.83,0,0,0,2.83,2.84h17.79a21.12,21.12,0,0,0,21.28-21.06V102.71a1.42,1.42,0,0,1,.87-1.31l19.57-8.09a2.83,2.83,0,0,0,1.54-3.69l-5.5-13.39A2.83,2.83,0,0,0,523.21,74.69Z"/><path d="M638.34,116.92a66.46,66.46,0,0,1-3.88-9.6c-1.53-4.68-2.31-10.72-2.31-17.94V36.51a2.84,2.84,0,0,0-2.84-2.84h-14.5A2.84,2.84,0,0,0,612,36.51V40a1.43,1.43,0,0,1-1.43,1.42l-26.33-.18a1.42,1.42,0,0,1-1.41-1.42V21.47A2.83,2.83,0,0,0,580,18.64h-14.5a2.84,2.84,0,0,0-2.84,2.83V39.82a1.42,1.42,0,0,1-1.41,1.42H540.92a2.83,2.83,0,0,0-2.83,2.83V58.79a2.83,2.83,0,0,0,2.83,2.83h21.72v1a92.6,92.6,0,0,1-4.15,15.94,1.42,1.42,0,0,1-2.19.63l-3-2.27a2.83,2.83,0,0,0-4,.56L540.7,89a2.84,2.84,0,0,0,.55,4l7,5.29a1.43,1.43,0,0,1,.38,1.82c-2.2,4-4.47,7.74-6.77,11.13-2.73,4-5.24,7.56-7.45,10.48-1.57,2.07-3.31,4.29-5.2,6.61-.34.42-1,1.24-1.67,2a2.84,2.84,0,0,0,.28,3.9L538.44,144a2.83,2.83,0,0,0,4-.18l1.74-2c1.6-1.82,3.6-4.3,5.94-7.36s5-6.73,7.76-10.82c2.28-3.34,4.56-7,6.8-11a1.43,1.43,0,0,1,2.1-.44L587,127.66a2.83,2.83,0,0,0,4-.54l8.81-11.56a2.84,2.84,0,0,0-.54-4l-23.83-18a1.41,1.41,0,0,1-.45-1.68,117.08,117.08,0,0,0,4.36-12c1.19-3.92,2.81-13.69,3.36-17.09A1.41,1.41,0,0,1,584,61.62h26.54A1.43,1.43,0,0,1,612,63V89.46a75.54,75.54,0,0,0,9.32,38.12,45.42,45.42,0,0,0,6.76,9.45l3.28,3.27,5.4,4.48a2.83,2.83,0,0,0,3.92-.3l15.87-17.82a2.85,2.85,0,0,0-.23-4l-10.64-9.53a2.82,2.82,0,0,0-4,.18Z"/><path d="M831.5,107.81a26.19,26.19,0,0,1-9.64-1.82v9.17a6.28,6.28,0,0,1-6.28,6.27H699.25a1.43,1.43,0,0,1-1.42-1.42V92.81a1.42,1.42,0,0,1,1.42-1.41H807a26.37,26.37,0,0,1,0-20.17H761.26a1.42,1.42,0,0,1-1.41-1.42V51.65a1.42,1.42,0,0,1,1.41-1.42h54.23a2.83,2.83,0,0,0,2.83-2.83V32.9a2.83,2.83,0,0,0-2.83-2.83H761.26a1.42,1.42,0,0,1-1.41-1.42V21.47A2.84,2.84,0,0,0,757,18.64h-14.5a2.83,2.83,0,0,0-2.83,2.83V69.81a1.43,1.43,0,0,1-1.42,1.42H680.5a2.83,2.83,0,0,0-2.83,2.83v64.7a2.83,2.83,0,0,0,2.83,2.84H820.94a20.31,20.31,0,0,0,15-6.21A20.53,20.53,0,0,0,842,120.54V105.63A26.41,26.41,0,0,1,831.5,107.81Z"/><path d="M773.78,160.56l23.45,26.68a2.83,2.83,0,0,0,4,.26l4.45-3.92a11.34,11.34,0,0,0,1-16l-17.84-20.31a2.85,2.85,0,0,0-4-.25L774,156.56A2.84,2.84,0,0,0,773.78,160.56Z"/><path d="M831.14,147.05l-10.62,9.52a2.83,2.83,0,0,0-.24,4l23.45,26.69a2.85,2.85,0,0,0,4,.26l4.42-3.9a11.33,11.33,0,0,0,1-16l-18-20.3A2.83,2.83,0,0,0,831.14,147.05Z"/><path d="M725.76,160.57l23.65,26.68a2.85,2.85,0,0,0,4,.23l4.35-3.9a11.35,11.35,0,0,0,1-15.93l-17.9-20.37a2.83,2.83,0,0,0-4-.25L726,156.56A2.84,2.84,0,0,0,725.76,160.57Z"/><path d="M686.15,155.56c-2.11,2.6-4.69,5.62-7.67,9-2,2.21-6.42,6.21-9,8.54a2.82,2.82,0,0,0-.3,3.93l9.16,11a2.83,2.83,0,0,0,4.06.3c3-2.69,8.39-7.53,10.83-10.12,3.49-3.71,6.48-7.18,8.9-10.33s4.29-5.77,5.61-7.82c.57-.88,1.07-1.69,1.48-2.39a2.84,2.84,0,0,0-1-3.89l-12.32-7.36a2.84,2.84,0,0,0-3.8.84C690.35,149.78,687.55,153.83,686.15,155.56Z"/><path d="M570.56,160.56,594,187.24a2.83,2.83,0,0,0,4,.26l4.45-3.92a11.34,11.34,0,0,0,1-16l-17.84-20.31a2.85,2.85,0,0,0-4-.25l-10.82,9.53A2.84,2.84,0,0,0,570.56,160.56Z"/><path d="M627.92,147.05l-10.63,9.52a2.84,2.84,0,0,0-.23,4l23.45,26.69a2.85,2.85,0,0,0,4,.26l4.41-3.9a11.33,11.33,0,0,0,1-16l-18-20.3A2.83,2.83,0,0,0,627.92,147.05Z"/><path d="M522.54,160.57l23.65,26.68a2.84,2.84,0,0,0,4,.23l4.36-3.9a11.34,11.34,0,0,0,.94-15.93l-17.89-20.37a2.85,2.85,0,0,0-4-.25l-10.81,9.53A2.84,2.84,0,0,0,522.54,160.57Z"/><path d="M482.93,155.56c-2.11,2.6-4.69,5.62-7.67,9-2,2.21-6.42,6.21-9.05,8.54a2.81,2.81,0,0,0-.29,3.93l9.16,11a2.83,2.83,0,0,0,4.06.3c3-2.69,8.39-7.53,10.83-10.12,3.49-3.71,6.48-7.18,8.9-10.33s4.29-5.77,5.61-7.82c.57-.88,1.06-1.69,1.48-2.39a2.84,2.84,0,0,0-1-3.89l-12.33-7.36a2.82,2.82,0,0,0-3.79.84C487.13,149.78,484.33,153.83,482.93,155.56Z"/><path d="M280.68,159V76.11a11.74,11.74,0,0,0-11.74-11.74H249.61a2.84,2.84,0,0,0-2.84,2.84v14.5a2.84,2.84,0,0,0,2.84,2.83h9.48A1.42,1.42,0,0,1,260.51,86v73.53a11.34,11.34,0,0,1-1.67,5.92L250.2,179.5a2.83,2.83,0,0,0,.93,3.89l12.15,7.52a2.84,2.84,0,0,0,3.9-.92l3.48-5.62a24.45,24.45,0,0,0,14.45,4.72H433.24a11.34,11.34,0,0,0,11.34-11.34v-6a2.83,2.83,0,0,0-2.83-2.83H290.63A10,10,0,0,1,280.68,159Z"/><rect x="260.51" y="23.97" width="20.17" height="27.34" rx="2.83"/><path d="M428.31,32.31H375.07a1.42,1.42,0,0,1-1.41-1.42v-6.4a2.83,2.83,0,0,0-2.84-2.83H357.14a2.83,2.83,0,0,0-2.83,2.83v6.4a1.42,1.42,0,0,1-1.42,1.42H300.33a2.83,2.83,0,0,0-2.83,2.83v11.5a2.84,2.84,0,0,0,2.83,2.84h52.56a1.41,1.41,0,0,1,1.42,1.41V62.73a1.41,1.41,0,0,1-1.42,1.41H308.58A2.84,2.84,0,0,0,305.75,67v52.83a2.84,2.84,0,0,0,2.83,2.84h10.13q-2.18,3.18-4.48,6.26-5,6.63-9.24,11.52t-9.89,11l6.09,6.09,5.87,6.08q.44-.44,4.34-4.56t9.35-10.76q5.43-6.63,11.52-15.21c2.38-3.37,4.6-6.85,6.69-10.39h15.35v37.87a2.84,2.84,0,0,0,2.83,2.84h13.68a2.84,2.84,0,0,0,2.84-2.84V122.65h29.8c.41,0,.81,0,1.22-.06l-11.57,9.08a2.85,2.85,0,0,0-.44,4l21.49,26.24a2.82,2.82,0,0,0,4,.38l4.55-3.79a11.34,11.34,0,0,0,1.54-15.85l-16.59-20.44a19.31,19.31,0,0,0,15.45-19.15V61.66a2.84,2.84,0,0,0-2.84-2.83h-13.5a2.83,2.83,0,0,0-2.83,2.83v1.07a1.42,1.42,0,0,1-1.42,1.41H375.07a1.41,1.41,0,0,1-1.41-1.41V50.89a1.41,1.41,0,0,1,1.41-1.41h53.24a2.84,2.84,0,0,0,2.84-2.84V35.14A2.83,2.83,0,0,0,428.31,32.31Zm-74,71.75a1.42,1.42,0,0,1-1.42,1.42H326.33a1.42,1.42,0,0,1-1.41-1.42V82.73a1.42,1.42,0,0,1,1.41-1.42h26.56a1.42,1.42,0,0,1,1.42,1.42Zm20.76-22.75h27.45a1.43,1.43,0,0,1,1.42,1.42V99.46a6,6,0,0,1-6,6H375.07a1.42,1.42,0,0,1-1.41-1.42V82.73A1.42,1.42,0,0,1,375.07,81.31Z"/><path class="cls-1" d="M187.89,35.36,171,45l9.63-16.92a108,108,0,1,0,7.29,7.29ZM138.81,138.82a43.61,43.61,0,1,1-10-69.17L164.6,51.36,146.31,87.19A43.62,43.62,0,0,1,138.81,138.82Z"/><path class="cls-1" d="M854,81.31A22.49,22.49,0,0,1,811.4,91.4a22.39,22.39,0,0,1,0-20.17A22.49,22.49,0,0,1,854,81.31Z"/></g></g></svg>