<?xml version="1.0" encoding="utf-8"?>
<!-- Generator: Adobe Illustrator 24.0.1, SVG Export Plug-In . SVG Version: 6.00 Build 0)  -->
<svg version="1.1" id="图层_1" xmlns="http://www.w3.org/2000/svg" xmlns:xlink="http://www.w3.org/1999/xlink" x="0px" y="0px"
	 viewBox="0 0 816.5 817.7" style="enable-background:new 0 0 816.5 817.7;" xml:space="preserve">
<title>资源 1</title>
<g id="图层_2_1_">
	<g id="图层_1-2">
		<path d="M622,580L519.6,477.6c57.3-80.7,38.2-192.6-42.5-249.8c-49.9-35.4-114.3-42.9-171-19.9c-91.7,37.2-135.9,141.6-98.7,233.3
			c9,22.3,22.4,42.5,39.4,59.4c61.5,61.6,158.4,70,229.6,20L579,623L622,580z M516.4,373.8c0,78.9-63.9,142.9-142.9,143
			c-37.9,0-74.3-15-101.1-41.9c-55.8-55.8-55.8-146.3,0-202.1s146.3-55.8,202.1,0C501.5,299.5,516.5,335.9,516.4,373.8z"/>
	</g>
</g>
</svg>
